<svg id="eU5mig1Ltd91" xmlns="http://www.w3.org/2000/svg" xmlns:xlink="http://www.w3.org/1999/xlink" viewBox="0 0 600 600" shape-rendering="geometricPrecision" text-rendering="geometricPrecision" width="600" height="600"><style><![CDATA[#eU5mig1Ltd910 {animation: eU5mig1Ltd910_c_o 3000ms linear infinite normal forwards}@keyframes eU5mig1Ltd910_c_o { 0% {opacity: 0} 33.333333% {opacity: 0.78} 56.666667% {opacity: 1} 73.333333% {opacity: 1} 100% {opacity: 0}} #eU5mig1Ltd911 {animation: eU5mig1Ltd911_c_o 3000ms linear infinite normal forwards}@keyframes eU5mig1Ltd911_c_o { 0% {opacity: 0} 33.333333% {opacity: 0.41} 73.333333% {opacity: 1} 100% {opacity: 0}}]]></style><defs><linearGradient id="eU5mig1Ltd910-fill" x1="300.355" y1="38" x2="300.355" y2="441.645" spreadMethod="pad" gradientUnits="userSpaceOnUse" gradientTransform="translate(0 0)"><stop id="eU5mig1Ltd910-fill-0" offset="0%" stop-color="#30c4f6"/><stop id="eU5mig1Ltd910-fill-1" offset="100%" stop-color="#3fa2f0"/></linearGradient><linearGradient id="eU5mig1Ltd911-fill" x1="300.355" y1="83.3597" x2="300.355" y2="396.285" spreadMethod="pad" gradientUnits="userSpaceOnUse" gradientTransform="translate(0 0)"><stop id="eU5mig1Ltd911-fill-0" offset="0%" stop-color="#30c5f7"/><stop id="eU5mig1Ltd911-fill-1" offset="100%" stop-color="#3fa0ef"/></linearGradient><linearGradient id="eU5mig1Ltd912-fill" x1="300.357" y1="125.145" x2="300.357" y2="354.5" spreadMethod="pad" gradientUnits="userSpaceOnUse" gradientTransform="translate(0 0)"><stop id="eU5mig1Ltd912-fill-0" offset="0%" stop-color="#2fc7f7"/><stop id="eU5mig1Ltd912-fill-1" offset="100%" stop-color="#409eef"/></linearGradient></defs><g clip-path="url(#eU5mig1Ltd916)"><g><path d="M601.565,-1.28687v601.13787h-602.61578v-601.13787h602.61578Z" fill="#fff"/><path d="M371.286,299c0,0,74.904,47.13,74.904,109.717c0,62.586-90.745,87.429,6.723,105.839c97.467,18.406,91.212,56.081-111.967,59.288-102.19,1.609-214.266-12.898-214.266-12.898-1.609,14.185-22.939,5.846-22.939,5.846l-.957,4.649-7.1938-1.402l6.1068-24.669l8.636.968-1.088,5.023c23.466-1.2,17.435,9.585,17.435,9.585l-2.815-2.616" fill="none" stroke="#b6d4e0" stroke-width="4.3488" stroke-linecap="round" stroke-linejoin="round"/><path d="M127.796,559.31c0,5.708-5.689,9.15-12.704,9.15-7.019,0-16.5046,3.162-12.228-6.913c2.197-5.178,3.024-10.616,10.039-10.616c7.019,0,14.893,2.668,14.893,8.379Z" fill="#b6d4e0"/><path d="M100.236,554.18l-10.1325-1.257c-1.8736-.232-3.2036-1.939-2.9716-3.813.2319-1.87,1.9388-3.2,3.8088-2.968l10.1363,1.254c1.874.232,3.204,1.939,2.972,3.813-.232,1.873-1.939,3.203-3.813,2.971Z" fill="#b6d4e0"/><path d="M98.1343,570.615l-10.1364-1.257c-1.8736-.232-3.2036-1.939-2.9716-3.813.2319-1.87,1.9388-3.2,3.8124-2.968l10.1363,1.254c1.874.232,3.204,1.939,2.972,3.812-.232,1.874-1.939,3.204-3.8127,2.972Z" fill="#b6d4e0"/><path d="M102.762,570.503l-7.1718-.464l5.0878-23.882l8.567.181-6.483,24.165Z" fill="#b6d4e0"/><path id="eU5mig1Ltd910" d="M121,155.97v167.704c0,12.188,6.505,23.455,17.062,29.547l145.235,83.852c10.557,6.096,23.563,6.096,34.12,0l145.232-83.852c10.56-6.092,17.062-17.359,17.062-29.547v-167.704c0-12.187-6.502-23.454-17.062-29.55L317.417,42.5717c-10.557-6.0956-23.563-6.0956-34.12,0L138.062,126.42C127.505,132.516,121,143.783,121,155.97Z" opacity="0" fill="url(#eU5mig1Ltd910-fill)" fill-opacity="0.25"/><path id="eU5mig1Ltd911" d="M161.31,174.815v130.011c0,9.451,5.041,18.185,13.227,22.911l112.594,65.004c8.183,4.725,18.265,4.725,26.452,0l112.59-65.004c8.187-4.726,13.228-13.46,13.228-22.911v-130.011c0-9.448-5.041-18.182-13.228-22.907L313.583,86.904c-8.187-4.7257-18.269-4.7257-26.452,0L174.537,151.908c-8.186,4.725-13.227,13.459-13.227,22.907Z" opacity="0" fill="url(#eU5mig1Ltd911-fill)" fill-opacity="0.5"/><path d="M198.445,192.178v95.289c0,6.926,3.693,13.329,9.694,16.79l82.522,47.645c5.998,3.464,13.391,3.464,19.389,0l82.525-47.645c5.998-3.461,9.694-9.864,9.694-16.79v-95.289c0-6.929-3.696-13.329-9.694-16.79L310.05,127.743c-5.998-3.465-13.391-3.465-19.389,0l-82.522,47.645c-6.001,3.461-9.694,9.861-9.694,16.79Z" fill="url(#eU5mig1Ltd912-fill)"/><path d="M374.344,244.311h-7.454v-8.527h-13.398v8.527h-10.176l20.421-29.307h-14.688l-22.502,31.315v9.241h26.514v9.604h13.829v-9.604h7.454v-11.249Z" fill="#fff"/><path d="M300.451,254.56c-4.588,0-7.882-3.943-7.882-14.474c0-10.535,3.294-14.478,7.882-14.478c4.515,0,7.81,3.943,7.81,14.478c0,10.531-3.295,14.474-7.81,14.474Zm0,11.607c12.756,0,22.07-9.531,22.07-26.081c0-16.555-9.314-26.086-22.07-26.086-12.829,0-22.143,9.531-22.143,26.086c0,16.55,9.314,26.081,22.143,26.081Z" fill="#fff"/><path d="M275.793,244.311h-7.451v-8.527h-13.398v8.527h-10.176l20.421-29.307h-14.688L228,246.319v9.241h26.513v9.604h13.829v-9.604h7.451v-11.249Z" fill="#fff"/></g><clipPath id="eU5mig1Ltd916"><rect width="600" height="600" rx="0" ry="0" fill="#fff"/></clipPath></g></svg>