<?xml version="1.0" encoding="UTF-8"?>
<svg id="Layer_1" xmlns="http://www.w3.org/2000/svg" viewBox="0 0 45 45">
  <defs>
    <style>
      .cls-1 {
        fill: #fff;
        fill-rule: evenodd;
      }

      .cls-2 {
        fill: #300bff;
      }
    </style>
  </defs>
  <rect class="cls-2" x="0" y="0" width="45" height="45" rx="10.53" ry="10.53" transform="translate(0 45) rotate(-90)"/>
  <path class="cls-1" d="M25.2,32.74c.07-.27.28-.47.54-.56.46-.15.91-.33,1.34-.55.24-.12.53-.12.77.02l1.54.9c.26.15.59.14.83-.04.86-.66,1.64-1.44,2.3-2.3.18-.24.2-.57.04-.83l-.9-1.54c-.14-.24-.14-.52-.02-.77.21-.43.4-.88.55-1.34.08-.26.29-.47.56-.54l1.69-.44c.29-.08.52-.32.55-.62.14-1.12.13-2.21,0-3.27-.04-.3-.26-.54-.55-.62l-1.71-.45c-.26-.07-.47-.27-.55-.53-.15-.45-.33-.89-.55-1.31-.12-.24-.12-.53.02-.77l.89-1.53c.15-.26.14-.59-.05-.83-.67-.87-1.45-1.65-2.31-2.31-.24-.18-.57-.2-.83-.05l-1.53.89c-.24.14-.52.14-.77.02-.42-.21-.86-.39-1.31-.55-.26-.09-.46-.29-.53-.55l-.45-1.71c-.08-.29-.32-.51-.62-.55-1.05-.14-2.15-.14-3.27,0-.3.04-.55.26-.62.56l-.45,1.71c-.07.26-.27.46-.52.55-.43.15-.85.34-1.26.56-.25.13-.55.14-.79,0l-1.45-.85c-.27-.16-.6-.14-.84.05-.86.69-1.65,1.48-2.34,2.34-.19.24-.21.58-.05.84l.85,1.45c.14.24.14.54,0,.79-.22.41-.41.83-.56,1.26-.09.25-.29.45-.55.52l-1.71.45c-.3.08-.52.32-.56.62-.14,1.12-.13,2.21,0,3.27.04.3.26.54.55.62l1.71.45c.26.07.47.27.55.53.15.45.33.89.55,1.31.12.24.12.53-.02.77l-.89,1.53c-.15.26-.14.59.05.83.67.87,1.45,1.65,2.31,2.31.24.18.57.2.83.05l1.53-.89c.24-.14.52-.14.77-.02.42.21.86.39,1.31.55.26.09.46.29.53.55l.45,1.71c.08.29.32.51.62.55,1.05.14,2.15.14,3.27,0,.3-.04.55-.26.62-.56l.44-1.69ZM23.76,28.1c-4.14.88-7.74-2.72-6.85-6.85.42-1.96,2.38-3.92,4.34-4.34,4.14-.88,7.74,2.72,6.85,6.85-.46,2.17-2.17,3.88-4.34,4.34Z"/>
</svg>