<?xml version="1.0" encoding="UTF-8"?>
<svg id="Layer_1" xmlns="http://www.w3.org/2000/svg" viewBox="0 0 45 45">
  <defs>
    <style>
      .cls-1 {
        fill: #fff;
        fill-rule: evenodd;
      }

      .cls-2 {
        fill: #300bff;
      }
    </style>
  </defs>
  <rect class="cls-2" x="0" y="0" width="45" height="45" rx="10.53" ry="10.53" transform="translate(0 45) rotate(-90)"/>
  <path class="cls-1" d="M32.68,14.3c0,.05.01.1.01.15,0,.24,0,.48,0,.73,0,.73,0,1.46,0,2.19-.01,1.72-.03,3.45-.06,5.17-.01.89-.03,1.77-.07,2.66,0,.09-.08.24-.16.27-1.01.45-2.08.65-3.18.59-1.21-.07-2.36-.42-3.46-.9-.44-.19-.88-.39-1.33-.59-.82-.37-1.64-.75-2.48-1.08-1.65-.66-3.29-.68-4.78.46-.35.27-.68.58-1.01.9-.16.15-.31.3-.48.45v-2.41c0-.57,0-1.13,0-1.69,0-2.26,0-4.51,0-6.77,0-.21.05-.37.21-.51,1.08-1.01,2.35-1.58,3.84-1.54,1.11.03,2.19.3,3.23.7.57.22,1.15.44,1.72.67.76.3,1.52.6,2.29.89.9.33,1.82.57,2.79.59.97.02,1.87-.22,2.66-.81.05-.04.1-.08.17-.12.03-.02.06-.04.09-.06,0,.03,0,.07.01.1ZM14.2,32.65h-1.89V12.92h1.89v19.73Z"/>
</svg>