<svg width="64" height="64" viewBox="0 0 64 64" fill="none" xmlns="http://www.w3.org/2000/svg">
<path d="M32 64C49.6731 64 64 49.6731 64 32C64 14.3269 49.6731 0 32 0C14.3269 0 0 14.3269 0 32C0 49.6731 14.3269 64 32 64Z" fill="#2AABEE"/>
<path fill-rule="evenodd" clip-rule="evenodd" d="M14.485 31.6622C23.8136 27.5979 30.0342 24.9184 33.1466 23.6239C42.0334 19.9276 43.88 19.2855 45.0835 19.2643C45.3483 19.2596 45.9402 19.3252 46.3236 19.6363C46.6473 19.899 46.7364 20.2538 46.779 20.5029C46.8216 20.752 46.8747 21.3193 46.8325 21.7626C46.3509 26.8226 44.2671 39.1018 43.207 44.769C42.7585 47.167 41.8752 47.9711 41.0201 48.0497C39.1618 48.2208 37.7507 46.8217 35.9509 45.6418C33.1345 43.7956 31.5434 42.6464 28.8095 40.8448C25.6501 38.7628 27.6983 37.6185 29.4988 35.7484C29.97 35.259 38.1577 27.8116 38.3162 27.1361C38.336 27.0516 38.3544 26.7366 38.1673 26.5703C37.9802 26.404 37.704 26.4609 37.5047 26.5061C37.2223 26.5702 32.723 29.5441 24.007 35.4276C22.7299 36.3046 21.5731 36.7319 20.5367 36.7095C19.3941 36.6848 17.1963 36.0634 15.5624 35.5323C13.5584 34.8809 11.9657 34.5365 12.1044 33.4302C12.1766 32.854 12.9701 32.2646 14.485 31.6622Z" fill="white"/>
</svg>
